<svg width="24" height="24" viewBox="0 0 24 24" fill="none" xmlns="http://www.w3.org/2000/svg">
<g id="Essentials 24x24">
<path id="Union" fill-rule="evenodd" clip-rule="evenodd" d="M4.5 15.737V8.6588L4.50029 8.6586C4.50029 8.17047 4.7629 7.71612 5.18553 7.47224L11.3152 3.93316C11.7375 3.68903 12.2625 3.68878 12.6854 3.93341L18.815 7.4725C19.2377 7.71635 19.5 8.17072 19.5 8.65886V15.737C19.5 16.2244 19.2377 16.6793 18.8153 16.9231L12.685 20.4625C12.4789 20.5812 12.2491 20.641 12.0185 20.6442C12.0121 20.6444 12.0064 20.646 12 20.646C11.9966 20.646 11.9933 20.6455 11.9901 20.645C11.9873 20.6446 11.9845 20.6442 11.9815 20.6441C11.7509 20.6409 11.521 20.5809 11.3153 20.4624L5.18498 16.9233C4.76235 16.6793 4.5 16.2247 4.5 15.737ZM18.3582 16.1322C18.4989 16.0512 18.5865 15.8995 18.5865 15.737V8.92291L12.4566 12.4617V19.5398L18.3582 16.1322ZM12 4.66347C11.921 4.66347 11.8423 4.68373 11.7719 4.72438L9.3765 6.10732L15.5065 9.64641L18.1299 8.13194L12.2283 4.72463C12.1577 4.68373 12.079 4.66347 12 4.66347ZM14.5931 10.1737L8.46345 6.63457L5.87029 8.13146L11.9999 11.6705L14.5931 10.1737ZM11.5433 12.4618L5.41338 8.92268L5.41345 15.7371C5.41345 15.8995 5.50111 16.0513 5.64203 16.1326L11.5433 19.5396V12.4618ZM14.5902 15.2946C14.4717 15.2946 14.3532 15.2641 14.2477 15.203V15.2029C14.0363 15.081 13.9052 14.8538 13.9052 14.6095V13.2958C13.9052 13.0518 14.0364 12.8244 14.2477 12.7024L16.3736 11.4757C16.5853 11.354 16.8476 11.3537 17.0589 11.4759C17.27 11.5982 17.4011 11.8253 17.4011 12.0692V13.3823C17.4011 13.6263 17.2699 13.8538 17.0586 13.9757L14.9327 15.2032C14.8269 15.264 14.7087 15.2946 14.5902 15.2946ZM16.4878 12.4647L14.8185 13.4279V14.2144L16.4878 13.2506V12.4647Z" fill="#231F1E"/>
<path id="Union (Stroke)" fill-rule="evenodd" clip-rule="evenodd" d="M4.42591 8.61796C4.43998 8.11847 4.71396 7.6576 5.1481 7.40709L11.2777 3.86803C11.7233 3.61049 12.2769 3.61022 12.723 3.8683L18.8525 7.40734C18.8525 7.40734 18.8526 7.40734 18.8525 7.40734C19.2984 7.6646 19.575 8.14375 19.575 8.65866V15.7368C19.575 16.251 19.2984 16.7306 18.8528 16.9879L12.7225 20.5273C12.5056 20.6522 12.2637 20.7153 12.0215 20.719C12.0211 20.7191 12.0206 20.7191 12.0198 20.7192C12.0168 20.7197 12.0088 20.7208 12 20.7208C11.9908 20.7208 11.9827 20.7196 11.9796 20.7191L11.9786 20.7189C11.7363 20.7152 11.4946 20.652 11.2779 20.5272L5.14753 16.9881C4.70169 16.7307 4.42505 16.2513 4.42505 15.7368V8.61853L4.42591 8.61796ZM12.0185 20.644C12.2491 20.6408 12.479 20.581 12.685 20.4623L18.8153 16.9229C19.2377 16.6791 19.5 16.2242 19.5 15.7368V8.65866C19.5 8.17053 19.2377 7.71616 18.8151 7.4723L12.6854 3.93322C12.2625 3.68858 11.7376 3.68884 11.3152 3.93296L5.18558 7.47205C4.76295 7.71592 4.50034 8.17028 4.50034 8.65841L4.50005 15.7368C4.50005 16.2245 4.7624 16.6791 5.18503 16.9231L11.3153 20.4622C11.5211 20.5807 11.7509 20.6407 11.9816 20.6439C11.9845 20.644 11.9873 20.6444 11.9901 20.6449C11.9934 20.6453 11.9966 20.6458 12 20.6458C12.0034 20.6458 12.0065 20.6454 12.0096 20.6449C12.0125 20.6445 12.0155 20.6441 12.0185 20.644ZM18.3208 16.067C18.4382 15.9994 18.5116 15.8725 18.5116 15.7368V9.05261L12.5316 12.5048V19.4097L18.3208 16.067ZM12.4566 19.5396V12.4615L18.5866 8.92271V15.7368C18.5866 15.8994 18.4989 16.051 18.3583 16.132L12.4566 19.5396ZM11.8095 4.78914L9.52656 6.10713L15.5065 9.55961L17.98 8.13174L12.1909 4.78939C12.132 4.75528 12.0662 4.73828 12 4.73828C11.9339 4.73828 11.8681 4.75526 11.8095 4.78914ZM18.13 8.13174L15.5065 9.64621L9.37655 6.10713L11.772 4.72418C11.8423 4.68354 11.921 4.66328 12 4.66328C12.079 4.66328 12.1578 4.68354 12.2284 4.72444L18.13 8.13174ZM5.64208 16.1324L11.5434 19.5394V12.4616L5.41343 8.92248L5.4135 15.7369C5.4135 15.8993 5.50116 16.0511 5.64208 16.1324ZM5.48843 9.05239L5.4885 15.7369C5.4885 15.8724 5.56184 15.9996 5.67956 16.0675L11.4684 19.4095V12.5049L5.48843 9.05239ZM14.1728 15.2445C13.9602 15.1048 13.8303 14.8656 13.8303 14.6094V13.2956C13.8303 13.0248 13.9758 12.7726 14.2103 12.6373L16.3362 11.4105C16.5709 11.2756 16.8619 11.2751 17.0965 11.4108C17.3307 11.5464 17.4762 11.7983 17.4762 12.069V13.3821C17.4762 13.6529 17.3306 13.9051 17.0962 14.0405C17.0962 14.0405 17.0962 14.0405 17.0962 14.0405L14.9702 15.268C14.8529 15.3354 14.7216 15.3694 14.5902 15.3694C14.4589 15.3694 14.3274 15.3356 14.2101 15.2677L14.1728 15.246V15.2445ZM17.0587 13.9755C17.2699 13.8536 17.4012 13.6261 17.4012 13.3821V12.069C17.4012 11.8251 17.27 11.598 17.0589 11.4757C16.8477 11.3535 16.5853 11.3538 16.3737 11.4755L14.2478 12.7022C14.0365 12.8242 13.9053 13.0516 13.9053 13.2956V14.6094C13.9053 14.8536 14.0364 15.0808 14.2478 15.2027C14.3533 15.2639 14.4718 15.2944 14.5902 15.2944C14.7087 15.2944 14.827 15.2638 14.9327 15.203L17.0587 13.9755ZM8.46349 6.72098L6.02035 8.13127L12 11.5837L14.4431 10.1735L8.46349 6.72098ZM8.4635 6.63438L5.87034 8.13126L12 11.6703L14.5931 10.1735L8.4635 6.63438ZM14.8936 13.4711V14.0843L16.4128 13.2071V12.5944L14.8936 13.4711ZM14.8186 13.4278V14.2142L16.4878 13.2504V12.4645L14.8186 13.4278Z" fill="#231F1E"/>
</g>
</svg>
