<svg width="24" height="24" viewBox="0 0 24 24" fill="none" xmlns="http://www.w3.org/2000/svg">
<g id="Essentials 24x24">
<path id="Vector" d="M6.39138 15.3167L6.32106 15.3878C6.27758 15.3448 6.24311 15.2936 6.21969 15.2371C6.19627 15.1806 6.18436 15.12 6.18466 15.0589C6.18496 14.9977 6.19747 14.9372 6.22144 14.881C6.24525 14.8251 6.27991 14.7745 6.3234 14.7321L9.10479 11.9069L6.33143 9.27571C6.2664 9.21634 6.21978 9.13953 6.19715 9.05441C6.17442 8.96892 6.17684 8.87869 6.20413 8.79454C6.23142 8.71039 6.28242 8.63592 6.351 8.58005C6.41956 8.52419 6.50277 8.48931 6.59066 8.47957C6.65854 8.47199 6.7273 8.47961 6.79192 8.50197C6.85619 8.52421 6.91471 8.56044 6.96328 8.60803L11.5857 12.989L11.5857 12.989C11.7115 13.1082 11.8556 13.1632 11.9961 13.1621C12.1369 13.1609 12.2819 13.1033 12.4088 12.9833L12.4088 12.9833L17.0375 8.60741C17.0375 8.6074 17.0375 8.60739 17.0375 8.60738C17.0813 8.5659 17.1329 8.53348 17.1893 8.51194C17.2457 8.49039 17.3057 8.48015 17.3661 8.48182C17.4264 8.48349 17.4858 8.49701 17.5409 8.52165C17.596 8.54628 17.6457 8.58153 17.6872 8.62537C17.7287 8.66921 17.7611 8.72079 17.7827 8.77717C17.8042 8.83355 17.8145 8.89362 17.8128 8.95395C17.8111 9.01429 17.7976 9.07371 17.773 9.12881C17.7483 9.18392 17.7131 9.23363 17.6693 9.27511L17.6692 9.27515L14.8898 11.9014L17.6766 14.732C17.7201 14.7744 17.7548 14.8251 17.7786 14.881C17.8026 14.9372 17.8151 14.9977 17.8154 15.0589C17.8157 15.12 17.8038 15.1806 17.7804 15.2371C17.7569 15.2936 17.7225 15.3448 17.679 15.3878C17.6355 15.4308 17.5839 15.4647 17.5271 15.4875C17.4704 15.5103 17.4097 15.5216 17.3485 15.5206C17.2874 15.5196 17.227 15.5064 17.171 15.4819C17.1153 15.4574 17.0651 15.4221 17.0231 15.3781L14.222 12.5331L13.0406 13.651L13.0405 13.651C12.4558 14.2042 11.5331 14.2054 10.9483 13.651L6.39138 15.3167ZM6.39138 15.3167L6.32106 15.3878C6.36454 15.4308 6.41617 15.4647 6.47292 15.4875C6.52966 15.5103 6.59038 15.5216 6.65154 15.5206C6.71269 15.5196 6.77303 15.5064 6.82902 15.4819C6.88471 15.4574 6.93498 15.4221 6.97693 15.3781L9.77243 12.5388L10.9482 13.651L6.39138 15.3167ZM5.88833 6.32749C5.04265 6.32749 4.35029 7.01985 4.35029 7.86554V16.1343C4.35029 16.98 5.04265 17.6723 5.88833 17.6723H18.1117C18.9574 17.6723 19.6498 16.98 19.6498 16.1343V7.86554C19.6498 7.01985 18.9574 6.32749 18.1117 6.32749H5.88833ZM5.88833 7.24651H18.1117C18.4611 7.24651 18.7307 7.51621 18.7307 7.86554V16.1343C18.7307 16.4836 18.4611 16.7533 18.1117 16.7533H5.88833C5.539 16.7533 5.26931 16.4836 5.26931 16.1343V7.86554C5.26931 7.51621 5.539 7.24651 5.88833 7.24651Z" fill="#231F1E" stroke="#231F1E" stroke-width="0.2"/>
</g>
</svg>
