<svg width="16" height="14" viewBox="0 0 16 14" fill="none" xmlns="http://www.w3.org/2000/svg">
<g id="Group 114">
<path id="Vector" d="M4.91648 7.87681C4.6274 7.23253 4.05744 6.75759 3.3715 6.5896V0.810759C3.3715 0.500937 3.12055 0.25 2.81074 0.25C2.50112 0.25 2.24998 0.500947 2.24998 0.810759V6.5871C2.1158 6.62133 1.98437 6.66651 1.85743 6.72167C1.27123 6.98709 0.822132 7.48507 0.618538 8.0957C0.41512 8.70613 0.475362 9.3739 0.784989 9.93821C1.09462 10.5023 1.62565 10.9119 2.25 11.0679V13.1485C2.25 13.4583 2.50115 13.7093 2.81076 13.7093C3.12059 13.7093 3.37152 13.4583 3.37152 13.1485V11.0707C4.10894 10.8906 4.7096 10.3572 4.97539 9.64639C5.19367 9.07251 5.17255 8.43509 4.91651 7.87703L4.91648 7.87681ZM3.92655 9.25084L3.92675 9.25065C3.78631 9.62306 3.46945 9.90099 3.08178 9.99117C2.69411 10.0815 2.28708 9.97219 1.99661 9.70012C1.70615 9.42785 1.5708 9.02865 1.63574 8.63609C1.70068 8.24333 1.9575 7.90904 2.31993 7.74495C2.47289 7.67434 2.63953 7.63796 2.80794 7.63835C3.03737 7.63835 3.26211 7.70446 3.45497 7.82866C3.64803 7.95306 3.80098 8.13027 3.89584 8.33935C4.02963 8.6259 4.04274 8.95429 3.93222 9.25062L3.92655 9.25084Z" fill="#231F1E"/>
<path id="Vector_2" d="M15.2914 7.87681C15.0021 7.23253 14.4321 6.75759 13.7462 6.5896V0.810759C13.7462 0.500937 13.4953 0.25 13.1854 0.25C12.8758 0.25 12.6247 0.500947 12.6247 0.810759V6.5871C12.4905 6.62133 12.3593 6.66651 12.2321 6.72167C11.6459 6.98709 11.1968 7.48507 10.9934 8.0957C10.7898 8.70613 10.8501 9.3739 11.1597 9.93821C11.4695 10.5023 12.0004 10.9119 12.6247 11.0679V13.1485C12.6247 13.4583 12.8759 13.7093 13.1855 13.7093C13.4953 13.7093 13.7462 13.4583 13.7462 13.1485V11.0707C14.4838 10.8906 15.0843 10.3572 15.3503 9.64639C15.5686 9.07251 15.5473 8.43509 15.2914 7.87703L15.2914 7.87681ZM14.3015 9.25065C14.1612 9.62306 13.8442 9.90099 13.4565 9.99117C13.0688 10.0815 12.6618 9.97219 12.3713 9.70012C12.0809 9.42785 11.9455 9.02865 12.0105 8.63609C12.0754 8.24333 12.3322 7.90904 12.6946 7.74495C12.8478 7.67473 13.0142 7.63835 13.1827 7.63835C13.4121 7.63835 13.6368 7.70446 13.8299 7.82866C14.0227 7.95306 14.1757 8.13027 14.2706 8.33935C14.4026 8.62668 14.4137 8.95512 14.3015 9.25065Z" fill="#231F1E"/>
<path id="Vector_3" d="M8.81417 3.05402C8.73007 3.02311 8.64596 2.99788 8.55892 2.97558L8.55911 0.81076C8.55911 0.500938 8.30797 0.25 7.99835 0.25C7.68853 0.25 7.43739 0.500948 7.43739 0.81076V2.9838C6.77314 3.15162 6.21728 3.60479 5.919 4.22153C5.62092 4.83842 5.61114 5.55571 5.8924 6.18041C6.14354 6.74022 6.60809 7.1762 7.18237 7.39171C7.26647 7.42262 7.35332 7.44785 7.43762 7.47014L7.43742 13.1483C7.43742 13.4582 7.68857 13.7091 7.99838 13.7091C8.30801 13.7091 8.55914 13.4582 8.55914 13.1483V7.46714C8.69391 7.43506 8.82554 7.39007 8.9517 7.33257C9.51501 7.0824 9.9549 6.61749 10.1738 6.04126C10.3926 5.46482 10.3721 4.82505 10.1167 4.26409C9.8614 3.70293 9.39255 3.26735 8.81417 3.05374L8.81417 3.05402ZM9.12263 5.64761C9.01114 5.94355 8.7866 6.18294 8.49868 6.31322C8.21057 6.44349 7.88254 6.45386 7.58681 6.34217C7.29087 6.23049 7.05164 6.00595 6.9216 5.71782C6.75496 5.34912 6.78684 4.92117 7.0061 4.58123C7.22536 4.24109 7.60206 4.03569 8.00674 4.03534C8.15031 4.03554 8.2927 4.06116 8.42727 4.11104C8.72027 4.22409 8.95633 4.44922 9.08347 4.73634C9.21804 5.02269 9.23216 5.35088 9.12263 5.64761Z" fill="#231F1E"/>
</g>
</svg>
