<svg width="32" height="32" viewBox="0 0 32 32" fill="none" xmlns="http://www.w3.org/2000/svg">
<g id="Essentials 24x24">
<path id="Vector (Stroke)" fill-rule="evenodd" clip-rule="evenodd" d="M15.0417 10.2455C14.1038 9.40052 12.5415 8.49608 10.6433 9.33295C8.1898 10.4169 7.28574 13.4417 8.60811 15.776C9.62684 17.5752 11.7138 19.842 15.6359 22.6486C15.7426 22.7247 15.8703 22.7653 16.0013 22.7653C16.1322 22.7653 16.2601 22.7246 16.3668 22.6485C20.2866 19.8441 22.3736 17.575 23.3923 15.7781C24.7147 13.444 23.8085 10.4191 21.3571 9.33514C19.459 8.49695 17.8968 9.40083 16.9588 10.2456C16.3465 10.797 16.0002 11.3232 16.0002 11.3232C16.0002 11.3232 15.654 10.797 15.0417 10.2455ZM16.0013 21.1726C19.5405 18.5822 21.3261 16.5636 22.1657 15.0827C23.1021 13.4295 22.4292 11.3514 20.7875 10.625M16.0013 21.1726C12.4594 18.58 10.6744 16.5635 9.83507 15.0813L9.83494 15.081C8.89775 13.4267 9.5698 11.3491 11.2127 10.6229C12.1722 10.2001 12.9802 10.4623 13.6835 10.9602C14.0406 11.213 14.3347 11.5072 14.542 11.7448C14.6439 11.8615 14.7204 11.9595 14.7687 12.0242C14.7927 12.0565 14.8095 12.08 14.8186 12.0931L14.8258 12.1035L16.0002 13.8882L17.1746 12.1035L17.1818 12.0931C17.1909 12.0801 17.2076 12.0565 17.2317 12.0243C17.28 11.9596 17.3565 11.8616 17.4584 11.7449C17.6657 11.5074 17.9596 11.2133 18.3167 10.9606C19.0197 10.4632 19.8274 10.2013 20.7868 10.6247" fill="#231F1E"/>
</g>
</svg>
