<svg width="24" height="24" viewBox="0 0 24 24" fill="none" xmlns="http://www.w3.org/2000/svg">
<g id="Essentials 24x24">
<path id="Union" fill-rule="evenodd" clip-rule="evenodd" d="M17.7 12C17.7 15.148 15.148 17.7 12 17.7C8.85198 17.7 6.3 15.148 6.3 12C6.3 8.85198 8.85198 6.3 12 6.3C15.148 6.3 17.7 8.85198 17.7 12ZM18.75 12C18.75 15.7279 15.7279 18.75 12 18.75C8.27208 18.75 5.25 15.7279 5.25 12C5.25 8.27208 8.27208 5.25 12 5.25C15.7279 5.25 18.75 8.27208 18.75 12ZM12.4719 11.3034C12.4769 11.1285 12.4808 10.9949 12.4808 10.897C12.4808 10.6142 12.3515 10.501 12.1737 10.501C11.9475 10.501 11.2121 10.6384 10.8808 10.7273C10.7919 10.7515 10.7677 10.8 10.7677 10.8404C10.7677 10.8808 10.8 10.9212 10.8808 10.9212H11.0909C11.5596 10.9212 11.5838 11.5515 11.5838 12.5616V13.1192C11.5838 13.6606 11.5515 14.2181 11.5354 14.4444C11.495 14.9211 11.398 15.1312 10.9132 15.1312C10.8162 15.1312 10.7677 15.1797 10.7677 15.2363C10.7677 15.2848 10.8081 15.3333 10.8889 15.3333H13.1111C13.1919 15.3333 13.2323 15.2848 13.2323 15.2363C13.2323 15.1797 13.1838 15.1312 13.0788 15.1312C12.5882 15.1312 12.5625 14.9376 12.5009 14.4744C12.4996 14.4645 12.4983 14.4545 12.497 14.4444C12.4646 14.2181 12.4485 13.6606 12.4485 13.1192V12.7717C12.4485 12.1112 12.4623 11.6338 12.4719 11.3034ZM11.9717 8.66675C11.6566 8.66675 11.3899 8.93341 11.3899 9.25663C11.3899 9.57178 11.6566 9.83844 11.9717 9.83844C12.2949 9.83844 12.5616 9.57178 12.5616 9.25663C12.5616 8.93341 12.2949 8.66675 11.9717 8.66675Z" fill="#231F1E"/>
</g>
</svg>
