<svg width="24" height="24" viewBox="0 0 24 24" fill="none" xmlns="http://www.w3.org/2000/svg">
<g id="Socials">
<path id="Union" fill-rule="evenodd" clip-rule="evenodd" d="M9.18938 19.0184H14.8075C17.1384 19.0184 19.034 17.1227 19.034 14.7919V9.17376C19.034 6.84291 17.1384 4.94727 14.8075 4.94727H9.18938C6.85853 4.94727 4.96292 6.84291 4.96292 9.17376V14.7919C4.96292 17.1227 6.85853 19.0184 9.18938 19.0184ZM6.28745 9.17376C6.28745 7.57398 7.58961 6.27181 9.18938 6.27181H14.8075C16.4073 6.27181 17.7095 7.57226 17.7095 9.17376V14.7919C17.7095 16.3916 16.4073 17.6938 14.8075 17.6938H9.18938C7.58961 17.6938 6.28745 16.3916 6.28745 14.7919V9.17376ZM15.7246 7.46035C15.2688 7.46035 14.899 7.83019 14.899 8.28604C14.899 8.74189 15.2688 9.11173 15.7246 9.11173C16.1805 9.11173 16.5503 8.74189 16.5503 8.28604C16.5503 7.83019 16.1805 7.46035 15.7246 7.46035ZM12.0573 8.5183C10.1461 8.5183 8.59279 10.0733 8.59279 11.9828C8.59279 13.8922 10.1479 15.4472 12.0573 15.4472C13.9667 15.4472 15.5217 13.8922 15.5217 11.9828C15.5217 10.0733 13.9667 8.5183 12.0573 8.5183ZM12.0573 14.2035C10.8325 14.2035 9.8382 13.2075 9.8382 11.9845C9.8382 10.7614 10.8342 9.76543 12.0573 9.76543C13.2803 9.76543 14.2763 10.7614 14.2763 11.9845C14.2763 13.2075 13.2803 14.2035 12.0573 14.2035Z" fill="#231F1E"/>
</g>
</svg>
