<svg width="32" height="32" viewBox="0 0 32 32" fill="none" xmlns="http://www.w3.org/2000/svg">
<g id="Group 113">
<path id="Vector 4" d="M10.3979 7.25059C13.0886 6.35371 22.0576 4.55977 26.5422 5.45677C27.439 9.94121 25.6452 20.7041 25.6452 20.7041C23.8514 22.4979 23.8514 24.2917 19.3669 26.9825C14.5027 29.9009 10.6728 27.8869 7.29928 24.6531C4.57598 22.0426 3.22255 19.8072 4.11953 15.3228C5.01651 10.8383 7.70713 8.14747 10.3979 7.25059Z" fill="#9ED8B7"/>
<path id="Line 11" d="M7.81885 24.1812L4.92317 27.0768" stroke="#9ED8B7" stroke-linecap="round"/>
<path id="Vector" d="M7.7366 24.262C7.51362 24.039 7.51334 23.6778 7.7366 23.4546L22.6247 8.56645C22.8477 8.34347 23.2089 8.34319 23.4322 8.56645C23.6551 8.78943 23.6554 9.15064 23.4322 9.3739L8.54333 24.2627C8.32035 24.4857 7.95958 24.485 7.7366 24.262Z" fill="white"/>
<path id="Vector_2" d="M10.997 21.0018C9.43312 19.4379 8.75823 17.2028 9.19182 15.0243C9.25347 14.7149 9.55388 14.5147 9.86328 14.5758C10.1721 14.638 10.3723 14.9384 10.3118 15.2473C9.95197 17.0514 10.5102 18.9008 11.8042 20.1947C13.0981 21.4886 14.9475 22.0469 16.7516 21.6871C17.0605 21.626 17.36 21.8259 17.4231 22.1356C17.4842 22.445 17.284 22.7454 16.9746 22.8071C14.7958 23.241 12.5609 22.5657 10.997 21.0018Z" fill="white"/>
<path id="Vector_3" d="M16.0313 15.967C14.9092 14.8448 14.4257 13.2426 14.7362 11.6803C14.7979 11.3709 15.0983 11.1707 15.4077 11.2318C15.7177 11.294 15.9167 11.5944 15.8562 11.9033C15.6194 13.0911 15.9869 14.3081 16.8385 15.1597C17.6901 16.0114 18.9072 16.3788 20.0949 16.142C20.4038 16.0809 20.7039 16.2803 20.7664 16.5905C20.8275 16.8999 20.6273 17.2003 20.3179 17.262C18.7554 17.5728 17.1535 17.0891 16.0312 15.9669L16.0313 15.967Z" fill="white"/>
<path id="Vector_4" d="M6.88027 25.1187C2.45174 20.6901 2.45181 13.4835 6.88026 9.05504C12.6109 3.32438 26.1598 4.69751 26.7342 4.75877C27.0008 4.78721 27.2128 4.99921 27.241 5.26553C27.302 5.83958 28.6757 19.3884 22.9447 25.1195C18.5162 29.548 11.3095 29.5479 6.88107 25.1195L6.88027 25.1187ZM26.1461 5.85284C23.7178 5.6656 12.4656 5.08411 7.6882 9.86153C3.70452 13.8452 3.70466 20.3272 7.6882 24.3107C11.6717 28.2943 18.1538 28.2943 22.1374 24.3107C26.9187 19.5294 26.3345 8.28127 26.1461 5.85284Z" fill="#9ED8B7"/>
</g>
</svg>
