<svg width="107" height="34" viewBox="0 0 107 34" fill="none" xmlns="http://www.w3.org/2000/svg">
<g id="Logo">
<path id="Union" fill-rule="evenodd" clip-rule="evenodd" d="M20.2985 14.4726C20.3579 14.4726 20.4115 14.3935 20.4288 14.3176L20.7712 13.0088C21.5906 14.1335 22.7586 14.7525 24.0643 14.7525C25.2803 14.7525 26.3179 14.3854 27.065 13.691C27.7874 13.0195 28.1854 12.0654 28.1854 11.0044C28.1854 8.33896 26.2035 7.17269 24.4549 6.14384L24.4548 6.14381C22.9864 5.27973 21.5994 4.46358 21.5994 2.90167C21.5994 2.5608 21.7067 2.04612 22.008 1.62362C22.246 1.28998 22.6958 0.892212 23.4873 0.892212C24.3847 0.892212 25.1382 1.3888 25.727 2.36829C26.1801 3.12191 26.5193 4.17218 26.6576 5.24969C26.6749 5.38157 26.7635 5.47737 26.8685 5.47737C26.9646 5.47737 27.0317 5.35373 27.0316 5.1751L26.7272 0.976652C26.7272 0.881859 26.6925 0.781034 26.6282 0.781034C26.5698 0.781034 26.4989 0.82456 26.4818 0.91865L26.235 1.87854C25.5187 0.951722 24.6196 0.500977 23.4873 0.500977C22.4881 0.500977 21.7095 0.775204 21.1732 1.31592C20.6935 1.79943 20.44 2.47485 20.44 3.26918C20.44 5.51133 22.1884 6.55507 23.8793 7.56447L23.8795 7.56463C25.4976 8.53046 27.026 9.44281 27.026 11.3194C27.026 13.1389 25.8357 14.3614 24.0643 14.3614C22.6733 14.3614 21.0259 13.1294 20.5737 9.6718C20.5569 9.52493 20.4721 9.42622 20.3626 9.42622C20.2689 9.42622 20.1836 9.56122 20.1836 9.70939V14.2595C20.1836 14.373 20.2373 14.4726 20.2985 14.4726ZM28.6466 3.72721C28.7904 3.72721 28.8428 3.63905 28.8889 3.53812C29.4342 1.76842 29.6179 1.17221 31.1303 1.17221H33.2427V13.7869C33.2427 13.985 33.1546 14.0813 32.9733 14.0813H31.8834C31.7764 14.0813 31.7044 14.1599 31.7044 14.2769C31.7044 14.371 31.7729 14.4725 31.8834 14.4725H35.9216C36.0322 14.4725 36.1008 14.371 36.1008 14.2769C36.1008 14.1828 36.0322 14.0813 35.9216 14.0813H34.832C34.6506 14.0813 34.5624 13.985 34.5624 13.7869V1.17221H36.6747C38.1871 1.17221 38.3709 1.76834 38.9173 3.54049L38.9174 3.54084C38.9623 3.63905 39.0146 3.72721 39.1586 3.72721C39.1965 3.72721 39.2268 3.71303 39.2485 3.68499C39.2915 3.6296 39.2994 3.52415 39.2733 3.35306L38.854 0.780977H28.9513L28.5319 3.35306C28.5059 3.52395 28.5137 3.6296 28.5567 3.68499C28.5784 3.71303 28.6087 3.72721 28.6466 3.72721ZM49.1952 12.7545C48.2005 14.0429 46.7954 14.7525 45.2389 14.7525C43.6753 14.7525 42.2652 14.0429 41.2684 12.7545C40.2723 11.467 39.7237 9.64596 39.7237 7.62676C39.7237 5.60765 40.2723 3.78657 41.2684 2.49897C42.2652 1.21057 43.6753 0.500977 45.2389 0.500977C46.7954 0.500977 48.2005 1.21057 49.1952 2.49897C50.1901 3.78758 50.7381 5.60865 50.7381 7.62676C50.7381 9.64496 50.1901 11.466 49.1952 12.7545ZM48.1615 2.80336C47.4308 1.55305 46.4202 0.892212 45.2389 0.892212C44.0505 0.892212 43.035 1.55305 42.3023 2.80336C41.5937 4.01245 41.2036 5.72536 41.2036 7.62676C41.2036 9.52815 41.5937 11.2412 42.3023 12.4502C43.035 13.7006 44.0505 14.3614 45.2389 14.3614C46.4202 14.3614 47.4308 13.7006 48.1615 12.4503C48.8687 11.24 49.2582 9.52694 49.2582 7.62676C49.2582 5.72667 48.8687 4.01366 48.1615 2.80336ZM52.8164 14.0813H51.8869C51.7798 14.0813 51.708 14.1599 51.708 14.2769C51.708 14.371 51.7763 14.4725 51.8869 14.4725H55.9251C56.0357 14.4725 56.104 14.371 56.104 14.2769C56.104 14.1828 56.0357 14.0813 55.9251 14.0813H54.6751C54.4938 14.0813 54.4056 13.985 54.4056 13.7869V6.89449L55.6046 6.8773C57.9808 6.8773 58.4167 7.94606 59.1763 10.3635C59.2023 10.4464 59.2288 10.5318 59.2559 10.6194L59.2604 10.6337C59.7602 12.2492 60.5004 14.6414 62.9184 14.6413C63.0712 14.6413 63.2306 14.6318 63.3971 14.6119C63.4703 14.5919 63.5233 14.532 63.5233 14.4694C63.5233 14.4039 63.4532 14.3614 63.3431 14.3614C63.2879 14.3661 63.2341 14.3683 63.1819 14.3683C61.8386 14.3683 61.4104 12.883 60.9958 11.4449C60.818 10.8279 60.6341 10.1898 60.3804 9.68199C59.5619 8.03703 58.7553 7.02266 57.1022 6.75134C59.226 6.40052 60.3025 5.35317 60.3025 3.63664C60.3025 1.74178 58.668 0.780977 55.4444 0.780977H51.8869C51.7763 0.780977 51.708 0.882506 51.708 0.976595C51.708 1.0936 51.7798 1.17221 51.8869 1.17221H52.8164C52.9979 1.17221 53.0861 1.26851 53.0861 1.46654V13.7869C53.0861 13.985 52.9979 14.0813 52.8164 14.0813ZM54.4056 6.48606V1.46654C54.4056 1.26851 54.4938 1.17221 54.6751 1.17221H55.4444C57.6861 1.17221 58.8228 2.06616 58.8228 3.82914C58.8228 5.59211 57.6861 6.48606 55.4444 6.48606H54.4056ZM64.1449 14.0813H65.0743C65.2558 14.0813 65.344 13.985 65.344 13.7869V1.46654C65.344 1.26851 65.2558 1.17221 65.0743 1.17221H64.1449C64.0377 1.17221 63.9659 1.0936 63.9659 0.976595C63.9659 0.882506 64.0342 0.780977 64.1449 0.780977H72.7178L72.7204 0.798167L73.1532 3.61573C73.1637 3.71947 73.1479 3.79979 73.1076 3.84914C73.0787 3.88433 73.0393 3.90222 72.9903 3.90222C72.9041 3.90222 72.8316 3.84502 72.7966 3.74932C72.0699 1.77435 71.3926 1.17221 69.8976 1.17221H66.6636V6.25858H69.0965C70.0985 6.25858 70.6102 5.92876 70.8083 4.05431C70.8265 3.95499 70.8979 3.8785 70.9712 3.8785C71.0419 3.8785 71.1183 3.95328 71.1183 4.07411V9.00929C71.1183 9.13012 71.0419 9.20491 70.9712 9.20491C70.8939 9.20491 70.8254 9.12409 70.8085 9.01271C70.6949 7.01492 70.1428 6.64982 69.0965 6.64982H66.6636V14.0813H70.122C71.2812 14.0813 72.4905 13.0127 73.2778 11.2926C73.3108 11.2209 73.3785 11.1763 73.4549 11.1763C73.5 11.1763 73.5385 11.1963 73.5663 11.2342C73.6099 11.2937 73.6232 11.3926 73.6017 11.4987L72.8767 14.4725H64.1449C64.0342 14.4725 63.9659 14.371 63.9659 14.2769C63.9659 14.1599 64.0377 14.0813 64.1449 14.0813ZM84.9159 8.35909H84.292C84.2198 8.35909 84.1696 8.304 84.1696 8.22519C84.1696 8.16086 84.2163 8.0914 84.292 8.0914H84.9159V7.54596C84.9595 6.64999 85.7509 5.60576 86.6798 5.21714C87.1137 5.03549 87.3884 5.12948 87.5003 5.27856C87.5787 5.3829 87.5862 5.51921 87.52 5.63411C87.4231 5.80238 87.1522 5.93739 86.6822 5.81113C86.3954 5.73523 86.1931 5.75986 86.0438 5.88823C85.7951 6.10194 85.6791 6.62868 85.6791 7.54596V8.0914H86.5518C86.6275 8.0914 86.6743 8.16086 86.6743 8.22519C86.6743 8.28963 86.6275 8.35909 86.5518 8.35909H85.6791V14.0218C85.6791 14.1467 85.7325 14.2049 85.847 14.2049H86.2201C86.2958 14.2049 86.3425 14.2745 86.3425 14.3388C86.3425 14.4031 86.2958 14.4726 86.2201 14.4726H84.3748C84.2992 14.4726 84.2524 14.4031 84.2524 14.3388C84.2524 14.2745 84.2992 14.2049 84.3748 14.2049H84.7482C84.8625 14.2049 84.9159 14.1467 84.9159 14.0218V8.35909ZM79.127 8.86025C79.5865 8.24766 80.235 7.91021 80.9532 7.91021C82.4413 7.91021 83.4805 9.30145 83.4805 11.2933C83.4805 13.2718 82.4413 14.6537 80.9532 14.6537C80.2348 14.6537 79.5863 14.3189 79.127 13.7108C78.6681 13.1031 78.4153 12.2446 78.4153 11.2933C78.4153 10.3363 78.6681 9.47234 79.127 8.86025ZM79.2822 11.2933C79.2822 13.1116 79.985 14.4313 80.9532 14.4313C81.9309 14.4313 82.6136 13.1409 82.6136 11.2933C82.6136 9.43233 81.9309 8.13257 80.9532 8.13257C79.9694 8.13257 79.2822 9.43233 79.2822 11.2933ZM103.116 24.6724C101.647 23.8083 100.26 22.9921 100.26 21.4301C100.26 21.0894 100.368 20.5745 100.669 20.1521C100.907 19.8186 101.357 19.4207 102.148 19.4207C103.046 19.4207 103.799 19.9175 104.388 20.8968C104.841 21.6505 105.18 22.7008 105.319 23.7782C105.336 23.91 105.424 24.0057 105.529 24.0057C105.625 24.0057 105.692 23.8821 105.692 23.7036L105.388 19.5051C105.388 19.409 105.351 19.3097 105.289 19.3097C105.231 19.3097 105.16 19.3531 105.143 19.447L104.896 20.407C104.18 19.4802 103.28 19.0296 102.148 19.0296C101.149 19.0296 100.37 19.3037 99.834 19.8445C99.3544 20.3278 99.101 21.0033 99.101 21.7977C99.101 24.0399 100.849 25.0838 102.54 26.093L102.541 26.0933C104.159 27.0592 105.687 27.9715 105.687 29.8479C105.687 31.6674 104.497 32.89 102.725 32.89C101.334 32.89 99.6867 31.6578 99.2346 28.2002C99.2177 28.0534 99.133 27.9549 99.0235 27.9549C98.9298 27.9549 98.8445 28.0898 98.8445 28.238V32.788C98.8445 32.9014 98.8981 33.001 98.9594 33.001C99.0187 33.001 99.0722 32.9219 99.0895 32.8462L99.4321 31.5371C100.252 32.662 101.42 33.281 102.725 33.281C103.941 33.281 104.979 32.9141 105.726 32.2197C106.448 31.548 106.846 30.5938 106.846 29.5329C106.846 26.8674 104.864 25.7014 103.116 24.6724ZM1.08137 19.3097H5.80857C7.82839 19.3097 9.51676 19.9744 10.6911 21.2317C11.8283 22.4495 12.4294 24.1519 12.4294 26.1553C12.4294 28.1588 11.8283 29.8612 10.6911 31.079C9.51676 32.3363 7.82839 33.001 5.80857 33.001H1.08137C0.970825 33.001 0.902344 32.8997 0.902344 32.8056C0.902344 32.6886 0.974322 32.6099 1.08137 32.6099H2.01083C2.19225 32.6099 2.28043 32.5136 2.28043 32.3154V19.9951C2.28043 19.7971 2.19225 19.7008 2.01083 19.7008H1.08137C0.974322 19.7008 0.902344 19.6222 0.902344 19.5051C0.902344 19.4111 0.970825 19.3097 1.08137 19.3097ZM3.86957 32.6099H5.80857C7.37866 32.6099 8.68974 31.9853 9.59996 30.8037C10.4829 29.6576 10.9495 28.0502 10.9495 26.1553C10.9495 24.2605 10.4829 22.6531 9.59996 21.507C8.68974 20.3254 7.37866 19.7008 5.80857 19.7008H3.86957C3.68824 19.7008 3.60016 19.7971 3.60016 19.9951V32.3154C3.60016 32.5136 3.68824 32.6099 3.86957 32.6099ZM23.6417 32.6099H24.2507C24.3612 32.6099 24.4297 32.7115 24.4297 32.8056C24.4297 32.8997 24.3612 33.001 24.2507 33.001H20.6772C20.5666 33.001 20.4982 32.8997 20.4982 32.8056C20.4982 32.6886 20.5701 32.6099 20.6772 32.6099H21.2861C21.3879 32.6099 21.4598 32.58 21.4998 32.5213C21.5481 32.4505 21.551 32.3361 21.5085 32.1813L20.0235 27.9784H15.5303L14.0127 32.2354C13.9692 32.351 13.9674 32.4425 14.0073 32.5076C14.0472 32.5725 14.1304 32.6099 14.2356 32.6099H14.8443C14.9515 32.6099 15.0236 32.6886 15.0236 32.8056C15.0236 32.8997 14.955 33.001 14.8443 33.001H12.1362C12.0257 33.001 11.9572 32.8997 11.9572 32.8056C11.9572 32.7115 12.0257 32.6099 12.1362 32.6099H12.7452C13.2463 32.6099 13.4233 32.2233 13.4814 32.0963L17.9883 19.3097H18.3184L18.3231 19.3226L22.9682 32.0655L22.9683 32.0657C23.0491 32.2824 23.1713 32.6099 23.6417 32.6099ZM15.6572 27.5874H19.8806L17.7768 21.6274L15.6572 27.5874ZM34.0888 19.3097H30.5315C30.4208 19.3097 30.3523 19.4111 30.3523 19.5051C30.3523 19.6222 30.4243 19.7008 30.5315 19.7008H31.7814C31.8716 19.7008 31.9932 19.7319 32.039 19.8194C32.0726 19.8835 32.0613 19.9686 32.0055 20.0723L28.721 26.1495L25.5321 20.125C25.4666 20.0011 25.4533 19.9004 25.4928 19.8256C25.5414 19.7337 25.6608 19.7008 25.7562 19.7008H27.0062C27.1132 19.7008 27.1852 19.6222 27.1852 19.5051C27.1852 19.4111 27.1167 19.3097 27.0062 19.3097H22.4872C22.3766 19.3097 22.3082 19.4111 22.3082 19.5051C22.3082 19.5992 22.3766 19.7008 22.4872 19.7008H23.2565C23.7501 19.7008 23.894 19.9123 24.1056 20.2858L27.7244 26.7913V32.3154C27.7244 32.5136 27.6362 32.6099 27.4548 32.6099H26.5253C26.4183 32.6099 26.3463 32.6886 26.3463 32.8056C26.3463 32.8997 26.4148 33.001 26.5253 33.001H30.243C30.3536 33.001 30.4222 32.8997 30.4222 32.8056C30.4222 32.7115 30.3536 32.6099 30.243 32.6099H29.3135C29.1321 32.6099 29.0439 32.5136 29.0439 32.3154V26.7386L32.5348 20.2156C32.7196 19.8692 32.9763 19.7008 33.3197 19.7008H34.0888C34.1994 19.7008 34.268 19.5992 34.268 19.5051C34.268 19.4111 34.1994 19.3097 34.0888 19.3097ZM35.0491 19.3097H39.7763C41.7962 19.3097 43.4845 19.9744 44.6589 21.2317C45.796 22.4495 46.3972 24.1519 46.3972 26.1553C46.3972 28.1588 45.796 29.8612 44.6589 31.079C43.4845 32.3363 41.7962 33.001 39.7763 33.001H35.0491C34.9386 33.001 34.8701 32.8997 34.8701 32.8056C34.8701 32.6886 34.9421 32.6099 35.0491 32.6099H35.9786C36.16 32.6099 36.2482 32.5136 36.2482 32.3154V19.9951C36.2482 19.7971 36.16 19.7008 35.9786 19.7008H35.0491C34.9421 19.7008 34.8701 19.6222 34.8701 19.5051C34.8701 19.4111 34.9386 19.3097 35.0491 19.3097ZM37.8373 32.6099H39.7763C41.3464 32.6099 42.6575 31.9853 43.5677 30.8037C44.4506 29.6576 44.9173 28.0502 44.9173 26.1553C44.9173 24.2605 44.4506 22.6531 43.5677 21.507C42.6575 20.3254 41.3464 19.7008 39.7763 19.7008H37.8373C37.656 19.7008 37.5679 19.7971 37.5679 19.9951V32.3154C37.5679 32.5136 37.656 32.6099 37.8373 32.6099ZM59.3797 32.89C57.9104 33.013 57.4631 31.4676 57.0323 29.9736C56.8545 29.3564 56.6706 28.7185 56.4169 28.2106C55.5985 26.5657 54.7918 25.5512 53.1387 25.28C55.2625 24.9292 56.3391 23.8817 56.3391 22.1652C56.3391 20.2703 54.7046 19.3097 51.4809 19.3097H47.9234C47.8128 19.3097 47.7444 19.4111 47.7444 19.5051C47.7444 19.6222 47.8163 19.7008 47.9234 19.7008H48.8528C49.0343 19.7008 49.1224 19.7971 49.1224 19.9951V32.3154C49.1224 32.5136 49.0343 32.6099 48.8528 32.6099H47.9234C47.8163 32.6099 47.7444 32.6886 47.7444 32.8056C47.7444 32.8997 47.8128 33.001 47.9234 33.001H51.9615C52.0722 33.001 52.1408 32.8997 52.1408 32.8056C52.1408 32.7115 52.0722 32.6099 51.9615 32.6099H50.7116C50.5303 32.6099 50.4422 32.5136 50.4422 32.3154V25.4231L51.641 25.4059C54.0173 25.4059 54.4533 26.4746 55.2128 28.892C55.2366 28.9679 55.2608 29.0459 55.2856 29.1256L55.2969 29.1622C55.7967 30.7778 56.537 33.1701 58.955 33.1701C59.1078 33.1701 59.2672 33.1604 59.4336 33.1405C59.5069 33.1206 59.5599 33.0607 59.5599 32.998C59.5599 32.9324 59.4897 32.89 59.3797 32.89ZM54.8594 22.3578C54.8594 24.1208 53.7226 25.0148 51.4809 25.0148H50.4422V19.9951C50.4422 19.7971 50.5303 19.7008 50.7116 19.7008H51.4809C53.7226 19.7008 54.8594 20.5948 54.8594 22.3578ZM69.3139 29.8212C69.3469 29.7495 69.4146 29.705 69.491 29.705C69.5361 29.705 69.5746 29.7249 69.6024 29.7629C69.646 29.8224 69.6593 29.9211 69.6377 30.0273L68.9128 33.001H60.1809C60.0703 33.001 60.002 32.8997 60.002 32.8056C60.002 32.6886 60.0738 32.6099 60.1809 32.6099H61.1104C61.2919 32.6099 61.3801 32.5136 61.3801 32.3154V19.9951C61.3801 19.7971 61.2919 19.7008 61.1104 19.7008H60.1809C60.0738 19.7008 60.002 19.6222 60.002 19.5051C60.002 19.4111 60.0703 19.3097 60.1809 19.3097H68.7539L68.7565 19.3268L69.1893 22.1443C69.1998 22.2482 69.184 22.3284 69.1436 22.3779C69.1147 22.4131 69.0753 22.4308 69.0264 22.4308C68.9402 22.4308 68.8677 22.3737 68.8327 22.278C68.1059 20.3029 67.4287 19.7008 65.9337 19.7008H62.6996V24.7872H65.1325C66.1345 24.7872 66.6463 24.4573 66.8444 22.5828C66.8626 22.4836 66.934 22.4072 67.0073 22.4072C67.078 22.4072 67.1544 22.4818 67.1544 22.6027V27.5379C67.1544 27.6588 67.078 27.7334 67.0073 27.7334C66.93 27.7334 66.8615 27.6527 66.8446 27.5414C66.731 25.5436 66.1789 25.1783 65.1325 25.1783H62.6996V32.6099H66.1581C67.3173 32.6099 68.5266 31.5414 69.3139 29.8212ZM82.4934 32.6099H81.8845C81.4137 32.6099 81.2917 32.2822 81.2111 32.0655L76.5658 19.3226L76.561 19.3097H76.2311L71.7241 32.0963C71.6661 32.2233 71.489 32.6099 70.9879 32.6099H70.3789C70.2683 32.6099 70.2 32.7115 70.2 32.8056C70.2 32.8997 70.2683 33.001 70.3789 33.001H73.0871C73.1977 33.001 73.2662 32.8997 73.2662 32.8056C73.2662 32.6886 73.1942 32.6099 73.0871 32.6099H72.4783C72.3732 32.6099 72.29 32.5725 72.25 32.5076C72.2101 32.4425 72.2119 32.351 72.2553 32.2354L73.773 27.9784H78.2662L79.7512 32.1813C79.7938 32.3361 79.7908 32.4505 79.7426 32.5213C79.7025 32.58 79.6307 32.6099 79.5289 32.6099H78.9199C78.8128 32.6099 78.741 32.6886 78.741 32.8056C78.741 32.8997 78.8093 33.001 78.9199 33.001H82.4934C82.604 33.001 82.6723 32.8997 82.6723 32.8056C82.6723 32.7115 82.604 32.6099 82.4934 32.6099ZM78.1233 27.5874H73.9L76.0196 21.6274L78.1233 27.5874ZM96.4611 19.7008H95.5317C95.3502 19.7008 95.262 19.7971 95.262 19.9951V32.3154C95.262 32.5136 95.3502 32.6099 95.5317 32.6099H96.4611C96.5718 32.6099 96.6401 32.7115 96.6401 32.8056C96.6401 32.8997 96.5718 33.001 96.4611 33.001H92.7435C92.6328 33.001 92.5645 32.8997 92.5645 32.8056C92.5645 32.6886 92.6363 32.6099 92.7435 32.6099H93.6729C93.8544 32.6099 93.9426 32.5136 93.9426 32.3154V20.7536L89.6316 33.001H89.3815L89.3769 32.9881L84.9263 20.7502V32.3154C84.9263 32.5136 85.0145 32.6099 85.196 32.6099H86.1255C86.2361 32.6099 86.3044 32.7115 86.3044 32.8056C86.3044 32.8997 86.2361 33.001 86.1255 33.001H83.209C83.0983 33.001 83.03 32.8997 83.03 32.8056C83.03 32.6886 83.1018 32.6099 83.209 32.6099H84.1384C84.32 32.6099 84.4081 32.5136 84.4081 32.3154V19.9951C84.4081 19.7971 84.32 19.7008 84.1384 19.7008H83.209C83.1018 19.7008 83.03 19.6222 83.03 19.5051C83.03 19.4111 83.0983 19.3097 83.209 19.3097H85.8019L85.8065 19.3226L89.9068 30.5965L93.8843 19.3097H96.4611C96.5718 19.3097 96.6401 19.4111 96.6401 19.5051C96.6401 19.5992 96.5718 19.7008 96.4611 19.7008Z" fill="#231F1E"/>
</g>
</svg>
