<svg width="24" height="24" viewBox="0 0 24 24" fill="none" xmlns="http://www.w3.org/2000/svg">
<g id="Essentials 24x24">
<path id="Vector" d="M17.9654 13.5268L15.3836 12.3791C15.1944 12.2958 14.9889 12.2558 14.7822 12.262C14.5755 12.2683 14.3728 12.3206 14.1889 12.4151C14.005 12.5097 13.8445 12.6441 13.7192 12.8086C13.5939 12.9731 13.5068 13.1635 13.4645 13.3659C13.4382 13.4955 13.3802 13.6166 13.2955 13.7183C13.2108 13.8199 13.1021 13.8988 12.9793 13.948C12.8642 13.9952 12.7393 14.0135 12.6155 14.0011C12.4917 13.9887 12.3729 13.9461 12.2694 13.877C11.4949 13.2348 10.7819 12.5218 10.1396 11.7473C10.0706 11.6438 10.028 11.5249 10.0156 11.4011C10.0032 11.2774 10.0214 11.1524 10.0686 11.0373C10.1178 10.9145 10.1968 10.8059 10.2984 10.7212C10.4 10.6365 10.5211 10.5784 10.6508 10.5522C10.8532 10.5098 11.0436 10.4228 11.2081 10.2975C11.3725 10.1722 11.507 10.0117 11.6015 9.82778C11.6961 9.64388 11.7484 9.44118 11.7546 9.23448C11.7609 9.02779 11.7209 8.82231 11.6376 8.63303L10.4757 6.03706C10.3369 5.71836 10.0824 5.46417 9.76354 5.32581C9.44466 5.18746 9.08517 5.17524 8.75764 5.29164L6.1451 6.19088C5.85819 6.28905 5.61162 6.47901 5.44351 6.73138C5.2754 6.98376 5.19512 7.28449 5.21509 7.58707C5.42948 10.4861 6.67803 13.2117 8.73336 15.2675C10.7887 17.3233 13.514 18.5724 16.413 18.7874H16.5124C16.8002 18.7843 17.0799 18.6914 17.3124 18.5217C17.5449 18.352 17.7186 18.114 17.8092 17.8408L18.7108 15.2377C18.8252 14.9111 18.8119 14.5533 18.6737 14.2361C18.5354 13.9188 18.2825 13.6655 17.9654 13.5268ZM18.2636 15.0887L17.362 17.6917C17.298 17.8799 17.1739 18.0419 17.0089 18.1526C16.8438 18.2633 16.6469 18.3168 16.4485 18.3046C13.6644 18.0988 11.0466 16.9003 9.07143 14.9273C7.09627 12.9543 5.89495 10.3379 5.68601 7.55394C5.67347 7.35547 5.72673 7.1584 5.83754 6.99327C5.94834 6.82813 6.11051 6.70414 6.29892 6.6405L8.90199 5.73889C9.11753 5.66227 9.3541 5.67021 9.56401 5.76112C9.77392 5.85202 9.94156 6.01912 10.0331 6.22874L11.1856 8.81052C11.2407 8.93502 11.2672 9.07027 11.2633 9.20636C11.2594 9.34246 11.2251 9.47595 11.163 9.59709C11.1008 9.71822 11.0124 9.82393 10.9041 9.90648C10.7958 9.98902 10.6705 10.0463 10.5372 10.0742C10.3316 10.1164 10.1396 10.2086 9.97817 10.3428C9.81677 10.4769 9.69097 10.6489 9.61192 10.8433C9.5338 11.0318 9.50329 11.2366 9.5231 11.4396C9.54292 11.6427 9.61243 11.8377 9.72551 12.0076C10.404 12.8352 11.1626 13.5937 11.9902 14.2722C12.16 14.3853 12.3551 14.4548 12.5581 14.4746C12.7612 14.4944 12.966 14.4639 13.1545 14.3858C13.3489 14.3068 13.5208 14.181 13.655 14.0196C13.7891 13.8582 13.8814 13.6662 13.9236 13.4606C13.9518 13.3271 14.0096 13.2017 14.0928 13.0935C14.1759 12.9853 14.2821 12.8971 14.4038 12.8353C14.5255 12.7736 14.6594 12.7399 14.7958 12.7367C14.9322 12.7335 15.0675 12.7609 15.192 12.8169L17.7737 13.9646C17.9819 14.0566 18.1478 14.2235 18.2386 14.4322C18.3293 14.6409 18.3383 14.8761 18.2636 15.091V15.0887Z" fill="#231F1E"/>
<path id="Vector (Stroke)" fill-rule="evenodd" clip-rule="evenodd" d="M17.7737 13.9648L15.192 12.8171C15.0676 12.7611 14.9322 12.7337 14.7958 12.7369C14.6594 12.7401 14.5255 12.7738 14.4038 12.8355C14.2822 12.8973 14.1759 12.9855 14.0928 13.0937C14.0097 13.2018 13.9518 13.3273 13.9236 13.4607C13.8814 13.6663 13.7891 13.8584 13.655 14.0198C13.5208 14.1812 13.3489 14.307 13.1545 14.386C12.966 14.4641 12.7612 14.4946 12.5581 14.4748C12.3551 14.455 12.16 14.3855 11.9902 14.2724C11.1626 13.5939 10.404 12.8353 9.72552 12.0078C9.61244 11.8379 9.54293 11.6429 9.52312 11.4398C9.50331 11.2368 9.53381 11.0319 9.61193 10.8435C9.69098 10.649 9.81678 10.4771 9.97819 10.343C10.1396 10.2088 10.3316 10.1166 10.5372 10.0744C10.6705 10.0465 10.7958 9.98922 10.9041 9.90667C11.0124 9.82412 11.1008 9.71841 11.163 9.59728C11.2251 9.47615 11.2594 9.34265 11.2633 9.20656C11.2672 9.07047 11.2407 8.93522 11.1856 8.81071L10.0332 6.22894C9.94158 6.01932 9.77393 5.85222 9.56402 5.76131C9.35411 5.67041 9.11754 5.66247 8.902 5.73909L6.29893 6.6407C6.11052 6.70433 5.94835 6.82832 5.83755 6.99346C5.72674 7.1586 5.67349 7.35567 5.68603 7.55414C5.89496 10.3381 7.09628 12.9545 9.07145 14.9275C11.0466 16.9005 13.6644 18.0989 16.4485 18.3048C16.6469 18.317 16.8438 18.2635 17.0089 18.1528C17.1739 18.042 17.298 17.8801 17.362 17.6919L18.2628 15.0912L18.2636 15.0888V15.0912C18.2638 15.0905 18.2641 15.0898 18.2643 15.0891C18.2643 15.0892 18.2644 15.089 18.2643 15.0891C18.2698 15.0733 18.2749 15.0571 18.2794 15.041C18.3364 14.84 18.3223 14.6249 18.2386 14.4324C18.1478 14.2237 17.9819 14.0568 17.7737 13.9648ZM17.9809 14.9908C18.0301 14.8475 18.0239 14.691 17.9635 14.552C17.9028 14.4124 17.7918 14.3007 17.6525 14.2392L15.0689 13.0907C14.9853 13.0531 14.8944 13.0347 14.8028 13.0368C14.7112 13.039 14.6213 13.0616 14.5396 13.103C14.4579 13.1445 14.3865 13.2037 14.3307 13.2764C14.2751 13.3488 14.2363 13.4327 14.2173 13.522C14.1651 13.7756 14.0512 14.0124 13.8857 14.2115C13.7202 14.4106 13.5082 14.5659 13.2684 14.6635C13.0347 14.7602 12.7808 14.798 12.529 14.7734C12.2769 14.7488 12.0348 14.6625 11.8239 14.5221L11.8115 14.5139L11.8 14.5044C10.9571 13.8134 10.1846 13.0408 9.49352 12.198L9.48407 12.1864L9.47581 12.174C9.33543 11.9632 9.24913 11.721 9.22453 11.469C9.19997 11.2172 9.23771 10.9633 9.33441 10.7295C9.43207 10.4898 9.58732 10.2778 9.78642 10.1123C9.98563 9.94669 10.2226 9.83278 10.4763 9.78063C10.5656 9.76188 10.6496 9.72344 10.7222 9.6681C10.7949 9.61266 10.8543 9.54167 10.8961 9.46032C10.9378 9.37897 10.9608 9.28932 10.9635 9.19793C10.9661 9.1067 10.9483 9.01604 10.9115 8.93255C10.9114 8.9324 10.9115 8.93271 10.9115 8.93255L9.75824 6.34905C9.69705 6.20899 9.58505 6.09734 9.4448 6.03661C9.30455 5.97587 9.14649 5.97057 9.00249 6.02176L9.00019 6.02257L6.39493 6.92493C6.26905 6.96745 6.1607 7.05028 6.08667 7.16061C6.01293 7.2705 5.97734 7.40155 5.98533 7.53361C6.1893 10.2452 7.3596 12.7935 9.28346 14.7153C11.2073 16.637 13.7569 17.8045 16.4687 18.0055C16.6008 18.0132 16.7318 17.9774 16.8417 17.9037C16.9521 17.8296 17.0352 17.7213 17.078 17.5954L17.0785 17.5937L17.9801 14.9907L17.9809 14.9908ZM12.9794 13.9482C13.1022 13.899 13.2108 13.8201 13.2955 13.7185C13.3802 13.6168 13.4382 13.4957 13.4645 13.3661C13.5068 13.1637 13.5939 12.9733 13.7192 12.8088C13.8445 12.6443 14.005 12.5099 14.1889 12.4153C14.3728 12.3208 14.5755 12.2685 14.7822 12.2622C14.9889 12.256 15.1944 12.296 15.3837 12.3793L17.9654 13.527C18.2825 13.6657 18.5355 13.919 18.6737 14.2363C18.8119 14.5535 18.8252 14.9113 18.7109 15.2379L17.8092 17.841C17.7186 18.1142 17.5449 18.3522 17.3124 18.5219C17.0799 18.6916 16.8002 18.7845 16.5124 18.7876H16.413C13.514 18.5726 10.7887 17.3234 8.73337 15.2677C6.67805 13.2119 5.42949 10.4863 5.21511 7.58727C5.19514 7.28469 5.27541 6.98395 5.44352 6.73158C5.61163 6.4792 5.8582 6.28924 6.14511 6.19107L8.75765 5.29183C9.08518 5.17544 9.44467 5.18765 9.76355 5.32601C10.0824 5.46436 10.3369 5.71855 10.4757 6.03726L11.6376 8.63323C11.7209 8.8225 11.7609 9.02798 11.7546 9.23468C11.7484 9.44137 11.6961 9.64407 11.6015 9.82797C11.507 10.0119 11.3726 10.1724 11.2081 10.2977C11.0436 10.423 10.8532 10.51 10.6508 10.5524C10.5211 10.5786 10.4 10.6367 10.2984 10.7214C10.1968 10.8061 10.1178 10.9147 10.0687 11.0375C10.0214 11.1526 10.0032 11.2776 10.0156 11.4013C10.028 11.5251 10.0706 11.644 10.1396 11.7474C10.7819 12.5219 11.4949 13.235 12.2694 13.8772C12.3729 13.9463 12.4918 13.9889 12.6155 14.0013C12.7393 14.0136 12.8643 13.9954 12.9794 13.9482ZM12.4475 13.6352C11.697 13.0114 11.0055 12.3199 10.3817 11.5694C10.3443 11.5095 10.3212 11.4418 10.3141 11.3715C10.3066 11.2966 10.3177 11.221 10.3462 11.1514L10.3471 11.1491C10.3778 11.0725 10.4271 11.0047 10.4905 10.9519C10.5539 10.899 10.6294 10.8628 10.7103 10.8464L10.7123 10.846C10.9584 10.7945 11.1899 10.6887 11.3899 10.5363C11.5899 10.3839 11.7534 10.1888 11.8683 9.96516C11.9833 9.74154 12.0469 9.49506 12.0545 9.24373C12.0621 8.99239 12.0135 8.74253 11.9122 8.51238L10.7501 5.91604C10.5809 5.52836 10.271 5.21918 9.88296 5.0508C9.49486 4.88241 9.0574 4.86735 8.65867 5.00863L6.04799 5.90723C6.0479 5.90726 6.04809 5.9072 6.04799 5.90723C5.69882 6.02677 5.39845 6.2581 5.19384 6.56527C4.98918 6.87252 4.89144 7.23865 4.91576 7.60702L4.91592 7.60939C5.13561 10.5802 6.41505 13.3732 8.52121 15.4798C10.6274 17.5864 13.4201 18.8664 16.3909 19.0868L16.4019 19.0876L16.5124 19.0876L16.5157 19.0876C16.8659 19.0838 17.2063 18.9708 17.4893 18.7642C17.7717 18.5581 17.9828 18.2691 18.0933 17.9375L18.994 15.337C18.994 15.3371 18.994 15.337 18.994 15.337C19.1332 14.9391 19.1171 14.503 18.9487 14.1165C18.7804 13.7301 18.4725 13.4216 18.0865 13.2525C18.0862 13.2524 18.0859 13.2523 18.0857 13.2521L15.5055 12.1052L15.5045 12.1047C15.2744 12.0034 15.0245 11.9548 14.7732 11.9624C14.5218 11.97 14.2753 12.0336 14.0517 12.1485C13.8281 12.2635 13.633 12.427 13.4806 12.627C13.3282 12.827 13.2224 13.0585 13.1708 13.3046L13.1704 13.3066C13.1541 13.3875 13.1178 13.463 13.065 13.5264C13.0122 13.5898 12.9444 13.6391 12.8678 13.6697L12.8655 13.6707C12.7959 13.6992 12.7203 13.7102 12.6454 13.7028C12.575 13.6957 12.5073 13.6726 12.4475 13.6352Z" fill="#231F1E"/>
</g>
</svg>
