<svg width="24" height="24" viewBox="0 0 24 24" fill="none" xmlns="http://www.w3.org/2000/svg">
<g id="Socials">
<path id="Vector" d="M11.0343 14.8889C11.0431 14.8528 11.0556 14.8178 11.068 14.7754C11.1529 14.8802 11.2228 14.9838 11.3089 15.0711C12.4357 16.2179 14.8764 16.0931 16.3826 14.2263C17.6916 12.6004 17.7939 10.3006 17.6516 9.36851C17.3384 7.32081 15.6688 5.51644 13.0284 5.21571C10.8172 4.9649 8.39515 5.79096 7.09241 7.83367C5.91694 9.67673 6.1715 11.8542 7.05996 12.9548C7.32076 13.278 7.6427 13.5238 8.02828 13.6798C8.22544 13.7597 8.38767 13.6885 8.44133 13.4939C8.5137 13.2318 8.57361 12.9673 8.64099 12.704C8.68467 12.5343 8.58234 12.4332 8.45007 12.266C7.40313 10.9533 7.93096 8.0795 10.2482 7.00761C12.2709 6.07173 15.4579 6.69939 15.6301 9.60685C15.7175 11.0643 15.2583 13.122 14.0753 13.9793C12.7926 14.9102 11.2914 14.0042 11.6133 12.7289C12.0014 11.1841 12.5068 10.1384 12.3159 9.33982C12.0052 8.0483 10.2307 8.16809 9.7366 9.73288C9.50824 10.4579 9.56064 11.1729 9.82144 11.8779C9.84515 11.9416 9.86261 11.999 9.84639 12.0688C8.75453 16.6584 8.65096 16.9491 8.62226 17.7952C8.61352 18.041 8.62476 18.2856 8.63475 18.5301C8.9492 18.6711 9.2699 18.7997 9.60307 18.9032C9.69541 18.7572 9.79024 18.6125 9.87634 18.4615C10.4316 17.4782 10.4915 17.0078 11.0331 14.8889H11.0343Z" fill="#231F1E"/>
</g>
</svg>
