<svg width="24" height="24" viewBox="0 0 24 24" fill="none" xmlns="http://www.w3.org/2000/svg">
<g id="Essentials 24x24">
<g id="Union">
<path fill-rule="evenodd" clip-rule="evenodd" d="M5.6811 12.6945C6.00632 12.6945 6.26618 12.4277 6.26618 12.103C6.26618 8.89188 8.84054 6.28299 12.0001 6.28299C14.0509 6.28299 15.9127 7.38232 16.9374 9.14039H16.4338C16.1085 9.14039 15.8487 9.40721 15.8487 9.73184C15.8487 10.0565 16.1085 10.3233 16.4338 10.3233H18.2404C18.5656 10.3233 18.8254 10.0565 18.8254 9.73184V7.89878C18.8254 7.57415 18.5656 7.30733 18.2404 7.30733C17.9151 7.30733 17.6553 7.57415 17.6553 7.89878V8.07833C16.3811 6.23439 14.2862 5.1001 12.0042 5.1001C8.19467 5.1001 5.10084 8.24194 5.10016 12.1018C5.09531 12.4283 5.35676 12.6945 5.6811 12.6945ZM17.192 9.29041C17.192 9.2904 17.192 9.29042 17.192 9.29041V9.29041ZM17.8052 8.59237C17.7568 8.50984 17.7068 8.42855 17.6553 8.34854C16.4231 6.43534 14.311 5.2501 12.0042 5.2501C14.4075 5.2501 16.5994 6.53649 17.8052 8.59237Z" fill="#231F1E"/>
<path fill-rule="evenodd" clip-rule="evenodd" d="M18.3191 11.3055C17.9939 11.3055 17.734 11.5724 17.734 11.897C17.734 15.1081 15.1597 17.717 12.0001 17.717C9.94932 17.717 8.08748 16.6177 7.06286 14.8596H7.56647C7.89169 14.8596 8.15155 14.5928 8.15155 14.2682C8.15155 13.9436 7.89169 13.6767 7.56647 13.6767H5.75985C5.43464 13.6767 5.17478 13.9436 5.17478 14.2682V16.1012C5.17478 16.4259 5.43464 16.6927 5.75985 16.6927C6.08507 16.6927 6.34493 16.4259 6.34493 16.1012V15.9217C7.61913 17.7656 9.71404 18.8999 11.996 18.8999C15.8056 18.8999 18.8994 15.7581 18.9001 11.8983C18.9049 11.5718 18.6435 11.3055 18.3191 11.3055ZM12.0001 17.867C9.86538 17.867 7.93107 16.7066 6.88997 14.8596C6.86207 14.8101 6.83481 14.7601 6.80821 14.7097C7.82753 16.6436 9.80816 17.867 12.0001 17.867ZM6.19493 15.4076C6.19492 15.4076 6.19495 15.4077 6.19493 15.4076V15.4076Z" fill="#231F1E"/>
</g>
</g>
</svg>
