<svg width="16" height="16" viewBox="0 0 16 16" fill="none" xmlns="http://www.w3.org/2000/svg">
<g id="Essentials 24x24" clip-path="url(#clip0_759_7755)">
<path id="Union" fill-rule="evenodd" clip-rule="evenodd" d="M14.8132 3.58767L12.4277 1.18518L12.4237 1.18132C12.24 1.01598 12.0125 0.899902 11.7429 0.899902C11.4973 0.899902 11.2482 0.994025 11.0735 1.1867L1.18493 11.0753C1.01478 11.2454 0.899902 11.4918 0.899902 11.7429C0.899902 11.9885 0.994026 12.2375 1.1867 12.4122L3.58933 14.8149C3.75948 14.985 4.00591 15.0999 4.25694 15.0999C4.50257 15.0999 4.7516 15.0058 4.92632 14.8131L14.8149 4.92454C14.985 4.75439 15.0999 4.50796 15.0999 4.25694C15.0999 4.01135 15.0058 3.76238 14.8132 3.58767ZM11.7428 0.999902C11.7428 0.999902 11.7428 0.999908 11.7428 0.999908C11.7429 0.999908 11.7429 0.999902 11.7429 0.999902C11.7429 0.999902 11.7428 0.999902 11.7428 0.999902ZM12.0431 1.05687C12.1581 1.10179 12.2627 1.17093 12.3568 1.25564L14.7441 3.66005C14.9146 3.81361 14.9999 4.0352 14.9999 4.25694C14.9999 4.47868 14.8976 4.70039 14.7441 4.85383L14.7442 4.85383C14.8976 4.70038 14.9999 4.47868 14.9999 4.25694C14.9999 4.0352 14.9146 3.81361 14.7442 3.66004L12.3568 1.25564C12.2627 1.17092 12.1581 1.10179 12.0431 1.05687ZM4.85383 14.7442L4.8538 14.7442C4.83461 14.7655 4.81437 14.7855 4.79319 14.8041C4.81437 14.7854 4.83463 14.7655 4.85383 14.7442ZM14.2282 4.31019C14.2227 4.31384 14.2176 4.31802 14.213 4.32266L12.9536 5.58203L11.933 4.56139C11.8939 4.52234 11.8306 4.52234 11.7916 4.56139L11.3141 5.03886C11.275 5.07791 11.275 5.14122 11.3141 5.18028L12.3347 6.20091L11.2654 7.27027L10.2447 6.24963C10.226 6.23088 10.2006 6.22034 10.174 6.22034C10.1475 6.22034 10.1221 6.23088 10.1033 6.24963L9.62586 6.7271C9.58681 6.76615 9.58681 6.82946 9.62586 6.86852L10.6465 7.88915L9.57715 8.9585L8.55664 7.93776C8.53788 7.919 8.51245 7.90846 8.48592 7.90846C8.4594 7.90846 8.43396 7.91899 8.41521 7.93775L7.93774 8.41521C7.91899 8.43397 7.90845 8.4594 7.90845 8.48592C7.90845 8.51245 7.91899 8.53788 7.93774 8.55663L8.95838 9.57727L7.88902 10.6466L6.86839 9.62599C6.84963 9.60723 6.8242 9.5967 6.79768 9.5967C6.77116 9.5967 6.74572 9.60723 6.72697 9.62599L6.2495 10.1035C6.21045 10.1425 6.21045 10.2058 6.2495 10.2449L7.27014 11.2655L4.32256 14.213C4.30942 14.2261 4.29857 14.2307 4.29208 14.2326C4.28509 14.2347 4.27988 14.2348 4.27385 14.2348C4.26494 14.2348 4.2591 14.2348 4.25345 14.2343C4.24812 14.2339 4.24484 14.2332 4.24286 14.2326L4.24111 14.232L4.24058 14.2317L4.23985 14.2311L4.23914 14.2303L4.2376 14.2282C4.23395 14.2227 4.22978 14.2176 4.22514 14.213L1.80383 11.7915C1.79069 11.7784 1.7861 11.7675 1.78415 11.7611C1.78206 11.7541 1.78197 11.7489 1.78197 11.7428C1.78197 11.7339 1.78201 11.7281 1.78246 11.7224C1.78288 11.7171 1.78356 11.7138 1.78415 11.7118C1.78456 11.7105 1.78495 11.7098 1.78508 11.7096L1.78574 11.7088L1.78707 11.7077L1.78863 11.7066C1.7941 11.7029 1.79918 11.6988 1.80383 11.6941L11.6942 1.80377C11.7073 1.79064 11.7182 1.78604 11.7246 1.7841C11.7316 1.782 11.7369 1.78192 11.7429 1.78192C11.7475 1.78192 11.7512 1.78193 11.7546 1.782C11.7578 1.78207 11.7605 1.78219 11.7633 1.7824C11.7658 1.7826 11.7678 1.78286 11.7695 1.78313C11.7714 1.78344 11.7728 1.78378 11.7739 1.7841C11.7746 1.78431 11.7751 1.78449 11.7754 1.78465C11.7759 1.78487 11.7761 1.78501 11.7761 1.78503L11.7769 1.78569C11.7773 1.78612 11.7781 1.78701 11.7791 1.78858C11.7828 1.79404 11.7869 1.79913 11.7916 1.80377L14.196 4.20815C14.2319 4.24435 14.2349 4.2711 14.2349 4.27395C14.2349 4.28286 14.2348 4.28869 14.2344 4.29434C14.2339 4.29968 14.2333 4.30295 14.2327 4.30493C14.2321 4.30669 14.2318 4.30718 14.2317 4.30721L14.2311 4.30794C14.2306 4.30836 14.2298 4.30915 14.2282 4.31019ZM1.68197 11.7428C1.68197 11.76 1.68197 11.8111 1.73312 11.8623L4.15442 14.2837C4.16723 14.3029 4.18242 14.3148 4.19821 14.3223C4.18241 14.3148 4.16721 14.3029 4.1544 14.2837L1.73309 11.8623C1.68195 11.8111 1.68195 11.76 1.68195 11.7428C1.68195 11.7152 1.68196 11.6765 1.709 11.6447C1.68197 11.6765 1.68197 11.7152 1.68197 11.7428ZM11.6235 1.73306C11.6255 1.73106 11.6275 1.72913 11.6295 1.72728L11.6235 1.73306ZM11.7429 1.68192C11.7429 1.68192 11.7429 1.68192 11.7429 1.68192C11.7386 1.68192 11.7322 1.68192 11.7242 1.68271M12.9536 5.72345L11.8623 4.6321L11.8622 4.63211L12.9536 5.72346L12.9536 5.72345ZM11.2654 7.41169L10.174 6.32034L10.174 6.32035L11.2654 7.4117L11.2654 7.41169ZM9.57714 9.09993L8.48592 8.00846L8.48589 8.00846L9.57712 9.09993L9.57714 9.09993ZM7.88902 10.788L6.79768 9.6967L6.79765 9.6967L7.889 10.7881L7.88902 10.788ZM4.80195 10.5074C4.9532 10.5668 5.09359 10.6603 5.21208 10.7879C5.67252 11.2484 5.67252 12.0157 5.21208 12.4761C5.20515 12.483 5.19814 12.4899 5.19105 12.4966C5.19815 12.4899 5.20516 12.483 5.2121 12.4761C5.67254 12.0157 5.67254 11.2483 5.2121 10.7879C5.09361 10.6603 4.95321 10.5668 4.80195 10.5074ZM5.28281 12.5468C5.78187 12.0478 5.78231 11.2181 5.28413 10.7185C4.79959 10.1983 3.98474 10.2026 3.47017 10.7172L3.46862 10.7188C2.97071 11.2184 2.97123 12.0479 3.4702 12.5468C3.72993 12.8065 4.06348 12.9171 4.37651 12.9171C4.70851 12.9171 5.04139 12.7881 5.28281 12.5468ZM4.68765 11.9047C4.68533 11.9067 4.68311 11.9087 4.68098 11.9108C4.53245 12.0593 4.25475 12.0594 4.1062 11.9108C4.02141 11.826 3.98205 11.7316 3.98205 11.6234C3.98205 11.5096 4.02493 11.4042 4.09953 11.342C4.10184 11.3401 4.10407 11.3381 4.1062 11.3359C4.19099 11.2511 4.28544 11.2118 4.39365 11.2118C4.50746 11.2118 4.6128 11.2547 4.67501 11.3293C4.67596 11.3304 4.67695 11.3315 4.67796 11.3326C4.67898 11.3338 4.68003 11.3349 4.6811 11.3359C4.76587 11.4207 4.80523 11.5151 4.80525 11.6233C4.80515 11.7372 4.76225 11.8425 4.68765 11.9047ZM4.20016 12.087C4.13888 12.0636 4.08239 12.0284 4.03549 11.9815C3.9332 11.8792 3.88205 11.7598 3.88205 11.6234C3.88205 11.4869 3.9332 11.3505 4.03549 11.2652C4.03549 11.2652 4.03547 11.2652 4.03547 11.2652C3.93317 11.3505 3.88202 11.4869 3.88202 11.6234C3.88202 11.7598 3.93317 11.8792 4.03547 11.9815C4.08237 12.0284 4.13887 12.0636 4.20016 12.087Z" fill="#231F1E"/>
</g>
<defs>
<clipPath id="clip0_759_7755">
<rect width="16" height="16" fill="white"/>
</clipPath>
</defs>
</svg>
