<svg width="17" height="17" viewBox="0 0 17 17" fill="none" xmlns="http://www.w3.org/2000/svg">
<g id="Group 1">
<path id="Union" fill-rule="evenodd" clip-rule="evenodd" d="M14.6 8C14.6 11.6451 11.6451 14.6 8 14.6C4.35492 14.6 1.4 11.6451 1.4 8C1.4 4.35492 4.35492 1.4 8 1.4C11.6451 1.4 14.6 4.35492 14.6 8ZM13.1348 14.1349C11.7454 15.2991 9.95454 16 8 16C3.58172 16 0 12.4183 0 8C0 3.58172 3.58172 0 8 0C12.4183 0 16 3.58172 16 8C16 9.95969 15.2954 11.7548 14.1257 13.1458L16.495 15.5151C16.7683 15.7885 16.7683 16.2317 16.495 16.505C16.2216 16.7784 15.7784 16.7784 15.505 16.505L13.1348 14.1349Z" fill="#231F1E"/>
</g>
</svg>
