<svg width="24" height="24" viewBox="0 0 24 24" fill="none" xmlns="http://www.w3.org/2000/svg">
<g id="Essentials 24x24">
<path id="Union" fill-rule="evenodd" clip-rule="evenodd" d="M16.9535 5.36509L18.6157 9.68444C18.6744 10.1101 18.5802 10.5986 18.3634 10.9261C17.2536 12.6079 14.8891 11.7673 14.8891 9.95037C14.8891 9.94127 14.8883 9.93236 14.8868 9.9237L14.889 5.36509H16.9535ZM8.52587 15.4493C8.52587 15.101 8.66221 14.7856 8.88049 14.5611C9.63197 13.787 10.9217 14.3367 10.9217 15.4493C10.9217 15.7862 10.9291 16.1422 10.9367 16.5034V16.5034C10.9497 17.12 10.963 17.7521 10.9399 18.3315H8.52587V15.4493ZM11.0832 18.4815H8.37587V15.4493C8.37587 15.0616 8.52769 14.7088 8.77295 14.4566C8.81608 14.4121 8.86071 14.3716 8.90658 14.3347C8.8607 14.3716 8.81605 14.4121 8.77291 14.4566C8.52765 14.7088 8.37584 15.0616 8.37584 15.4493V18.4816H11.0832L11.0832 18.4815ZM11.9365 15.4493C11.9365 14.8296 11.6891 14.2645 11.2915 13.8545C9.87892 12.3991 7.51101 13.4717 7.51101 15.4493V18.3315L5.72461 18.3314V12.4158C7.03364 13.229 8.75378 12.8583 9.62245 11.591C10.7576 13.2676 13.2431 13.2583 14.3815 11.5907C15.2481 12.8624 16.9665 13.2275 18.2732 12.4177V18.3315H11.9365V15.4493ZM5.57461 12.1297V18.4814L7.66098 18.4815L5.57457 18.4814V12.1296L5.57461 12.1297ZM8.70128 12.274C9.02557 12.0697 9.31184 11.7941 9.53435 11.4529C9.56518 11.4056 9.59479 11.3571 9.62311 11.3073L9.62309 11.3073C9.39044 11.7163 9.0705 12.0414 8.70128 12.274ZM14.2931 11.4529C14.0845 11.7736 13.8245 12.0323 13.5332 12.229C13.8674 12.0034 14.1603 11.6961 14.3817 11.3073L14.3818 11.3073C14.3534 11.3572 14.3238 11.4057 14.2931 11.4529ZM18.243 12.2593C18.2531 12.2527 18.2632 12.2461 18.2732 12.2394C18.324 12.2055 18.374 12.1698 18.4232 12.132V12.132C18.3643 12.1772 18.3041 12.2196 18.243 12.2593ZM18.4232 18.4816H11.7865V15.4493C11.7865 14.87 11.5552 14.342 11.1838 13.9589C10.8788 13.6447 10.5249 13.457 10.1615 13.3773C10.5249 13.4569 10.8788 13.6447 11.1838 13.9589C11.5553 14.342 11.7865 14.87 11.7865 15.4493V18.4815H18.4232V18.4816ZM9.98314 9.61579H9.98076L9.97838 5.21478H9.97835L9.98072 9.6158H9.9831C9.9831 10.3167 10.0299 10.8446 10.5718 11.3912C11.0741 11.8973 11.7251 12.0587 12.3263 11.9548C11.7251 12.0587 11.0741 11.8973 10.5718 11.3912C10.0299 10.8446 9.98314 10.3167 9.98314 9.61579ZM14.0245 9.94982V9.94983H14.0269V9.94982H14.0245ZM13.8769 5.36477H10.1285L10.1307 9.58897C10.1323 9.59767 10.1331 9.60664 10.1331 9.61579C10.1331 9.96545 10.1453 10.2548 10.2189 10.5214C10.2911 10.7834 10.4247 11.0297 10.6784 11.2856C11.8425 12.4583 13.8745 11.6297 13.8745 9.94982C13.8745 9.9407 13.8753 9.93176 13.8769 9.92308L13.8769 5.36477ZM6.94166 5.21478H6.94162L5.23622 9.64622C5.10078 10.1625 5.36466 10.945 5.80628 11.3889C6.31129 11.8939 6.96166 12.0566 7.5621 11.9554C6.96167 12.0565 6.31131 11.8939 5.80632 11.3889C5.3647 10.945 5.10081 10.1625 5.23626 9.64621L6.94166 5.21478ZM9.27063 9.61582H9.26829V9.61583H9.27063V9.61582ZM9.11829 9.61582C9.11829 9.60675 9.11909 9.59787 9.12063 9.58924L9.11617 5.36477H7.04466L5.37937 9.69198C5.32404 9.9118 5.34969 10.202 5.44732 10.4977C5.54549 10.7949 5.71083 11.0802 5.91258 11.283C7.08921 12.4593 9.11829 11.6285 9.11829 9.94989V9.61582ZM4.9183 8.49011L4.91842 8.49009L6.04119 5.57171L4.9183 8.49011ZM6.61042 4.51098C6.63856 4.50388 6.66807 4.5001 6.69853 4.5001H17.2996V4.50247C17.442 4.50247 17.5776 4.58889 17.6312 4.73147L19.0796 8.49023L19.13 8.59105C19.3559 9.04183 19.5001 9.32954 19.5001 9.95026C19.5001 10.4455 19.3669 10.9104 19.138 11.3122V18.839C19.138 18.9424 19.0933 19.0361 19.0222 19.1016C19.0932 19.0361 19.138 18.9424 19.138 18.839V11.3122C19.3669 10.9104 19.5001 10.4455 19.5001 9.95027C19.5001 9.32955 19.3559 9.04184 19.13 8.59106L19.0796 8.49024L17.6312 4.73148C17.5776 4.5889 17.442 4.50248 17.2996 4.50248V4.50011H6.69849C6.66805 4.50011 6.63855 4.50389 6.61042 4.51098ZM4.3501 9.9501C4.35023 9.40826 4.50252 8.8759 4.78384 8.42225L6.21056 4.71382C6.27249 4.50571 6.46576 4.3501 6.69853 4.3501H17.2996C17.3105 4.3501 17.3212 4.35127 17.3315 4.35349C17.5215 4.3656 17.6989 4.48601 17.7716 4.67865L19.2171 8.4297L19.2637 8.52292L19.2637 8.52294C19.3681 8.73113 19.4605 8.9155 19.5275 9.11463C19.6067 9.34992 19.6501 9.60344 19.6501 9.95026C19.6501 10.4584 19.5171 10.9361 19.288 11.3514V18.839C19.288 19.1181 19.0597 19.3465 18.7806 19.3465L5.21734 19.3463C4.93827 19.3463 4.7099 19.118 4.7099 18.8389V11.3513C4.48056 10.9355 4.3501 10.4578 4.3501 9.9501ZM14.0999 13.5445H16.6087C16.9559 13.5445 17.2502 13.841 17.2502 14.2128V15.7269C17.2502 16.0041 17.0846 16.2403 16.8554 16.341C17.0847 16.2403 17.2502 16.0041 17.2502 15.7269V14.2128C17.2502 13.841 16.9559 13.5445 16.6088 13.5445H14.1C14.0879 13.5445 14.0758 13.5448 14.0639 13.5455C14.0758 13.5448 14.0878 13.5445 14.0999 13.5445ZM14.0647 14.196L14.0646 14.196V15.7414H16.6441V15.7414H14.0647V14.196ZM16.6088 13.3945H14.1C13.6633 13.3945 13.3085 13.7628 13.3085 14.2128V15.7269C13.3085 16.1751 13.6636 16.5431 14.1 16.5431H16.6088C17.0428 16.5431 17.4002 16.1753 17.4002 15.7269V14.2128C17.4002 13.7625 17.0431 13.3945 16.6088 13.3945ZM14.2147 15.5914V14.3452L16.4941 14.334V15.5914H14.2147Z" fill="#231F1E"/>
</g>
</svg>
