<svg width="16" height="16" viewBox="0 0 16 16" fill="none" xmlns="http://www.w3.org/2000/svg">
<g id="Essentials 24x24">
<path id="Union" fill-rule="evenodd" clip-rule="evenodd" d="M7.99999 3.00049C7.61252 3.00049 7.33849 3.24403 7.11682 3.53353C6.89897 3.81799 6.66798 4.23239 6.38567 4.73885L6.38564 4.73889L6.21886 5.03809C6.03629 5.3656 5.98959 5.43517 5.93101 5.47965C5.87462 5.52245 5.80187 5.54633 5.4468 5.62666L5.15084 5.69363L5.12123 5.70032C4.57445 5.82402 4.124 5.92593 3.79594 6.05521C3.4554 6.18941 3.1574 6.38721 3.04268 6.75613C2.92913 7.12127 3.05673 7.45716 3.25395 7.77045C3.44557 8.07485 3.75163 8.43274 4.1255 8.86988L4.34618 9.12797C4.58663 9.40912 4.63686 9.47795 4.66048 9.55385C4.68455 9.63129 4.68229 9.72073 4.64596 10.0956L4.61269 10.4389C4.55607 11.023 4.5099 11.4994 4.52606 11.8623C4.54251 12.2315 4.62638 12.5861 4.93115 12.8175C5.24161 13.0532 5.60283 13.0266 5.95155 12.9267C6.28938 12.8299 6.71048 12.636 7.22172 12.4007L7.22305 12.4L7.52801 12.2596C7.86162 12.106 7.93306 12.0814 7.99999 12.0814C8.06692 12.0814 8.13836 12.106 8.47201 12.2596L8.77693 12.4L8.77879 12.4009C9.28984 12.6362 9.71074 12.83 10.0485 12.9267C10.3972 13.0266 10.7584 13.0532 11.0689 12.8175C11.3736 12.5861 11.4575 12.2315 11.4739 11.8623C11.4901 11.4997 11.444 11.0237 11.3874 10.44L11.3873 10.4389L11.354 10.0956C11.3177 9.72073 11.3155 9.63129 11.3395 9.55385C11.3631 9.47795 11.4134 9.40912 11.6538 9.12797L11.8745 8.86988L11.8759 8.86829C12.2491 8.43182 12.5547 8.07448 12.746 7.77045C12.9432 7.45716 13.0709 7.12127 12.9573 6.75613C12.8426 6.38721 12.5446 6.18941 12.2041 6.05521C11.876 5.92593 11.4255 5.82402 10.8788 5.70032L10.5532 5.62666C10.1981 5.54632 10.1254 5.52245 10.069 5.47965C10.0104 5.43517 9.96371 5.3656 9.78112 5.03809L9.61433 4.7389L9.61399 4.73828C9.33183 4.23207 9.10097 3.81788 8.8832 3.53353C8.66149 3.24403 8.38746 3.00049 7.99999 3.00049Z" fill="#231F1E"/>
</g>
</svg>
