<svg width="32" height="32" viewBox="0 0 32 32" fill="none" xmlns="http://www.w3.org/2000/svg">
<g id="Essentials 24x24">
<path id="Union" fill-rule="evenodd" clip-rule="evenodd" d="M13.109 11.3146C13.109 9.83549 14.2879 8.65391 15.721 8.65391C17.1541 8.65391 18.333 9.83549 18.333 11.3146C18.333 12.7938 17.1541 13.9754 15.721 13.9754C14.2879 13.9754 13.109 12.7938 13.109 11.3146ZM15.721 7.25391C13.4955 7.25391 11.709 9.08166 11.709 11.3146C11.709 13.5476 13.4955 15.3754 15.721 15.3754C17.9465 15.3754 19.733 13.5476 19.733 11.3146C19.733 9.08166 17.9465 7.25391 15.721 7.25391ZM10.2742 21.3928C11.241 19.3141 13.3203 17.885 15.721 17.885C18.1216 17.885 20.2009 19.3141 21.1678 21.3929C21.3869 21.864 21.2887 22.2985 20.9782 22.6544C20.6494 23.0311 20.0818 23.3048 19.442 23.3048H12C11.3602 23.3048 10.7926 23.0311 10.4638 22.6544C10.1533 22.2985 10.0551 21.864 10.2742 21.3928ZM15.721 16.485C12.7471 16.485 10.1889 18.2563 9.00477 20.8025C8.52517 21.8337 8.77885 22.8528 9.409 23.5749C10.021 24.2762 10.983 24.7048 12 24.7048H19.442C20.459 24.7048 21.4211 24.2761 22.033 23.5749C22.6632 22.8528 22.9168 21.8337 22.4372 20.8025C21.253 18.2563 18.6947 16.485 15.721 16.485Z" fill="#231F1E"/>
</g>
</svg>
