<svg width="24" height="24" viewBox="0 0 24 24" fill="none" xmlns="http://www.w3.org/2000/svg">
<g id="Socials">
<path id="Union" fill-rule="evenodd" clip-rule="evenodd" d="M5.51634 18.8615L5.51584 18.8633V18.8616L5.51634 18.8615ZM5.51634 18.8615L9.26757 17.857C10.2773 18.4058 11.404 18.693 12.5445 18.693C16.3444 18.693 19.4373 15.6001 19.4373 11.8003C19.4373 8.00037 16.3444 4.90747 12.5445 4.90747C8.7446 4.90747 5.65174 8.00037 5.65174 11.8003C5.65174 12.9631 5.95106 14.1087 6.517 15.1305L5.51634 18.8615ZM9.69073 16.5996L9.45504 16.4585L9.45332 16.4568L7.35643 17.0193L7.91549 14.9344L7.77098 14.697C7.236 13.818 6.95389 12.8169 6.95389 11.7985C6.95389 8.71597 9.46192 6.20794 12.5445 6.20794C15.6271 6.20794 18.1351 8.71597 18.1351 11.7985C18.1351 14.8811 15.6271 17.3891 12.5445 17.3891C11.5451 17.3891 10.5577 17.1156 9.69073 16.5996ZM14.1218 12.5365C14.4555 12.3988 14.8254 12.5881 15.1092 12.7584L15.1126 12.7566C15.1529 12.7804 15.1971 12.805 15.2436 12.8309C15.5032 12.9753 15.8303 13.1572 15.8902 13.4344C15.9246 13.5927 15.8936 13.7595 15.8317 13.9092C15.6235 14.4149 15.1075 14.7383 14.5828 14.8381C14.1187 14.9271 13.731 14.7973 13.3098 14.6563C13.2751 14.6447 13.2402 14.633 13.2049 14.6213C12.7904 14.4854 12.3913 14.2859 12.0215 14.0588C11.2801 13.6047 10.6384 12.9975 10.1241 12.2974C9.96758 12.0823 9.82135 11.8604 9.68718 11.6316C9.50828 11.3289 9.35003 11.0089 9.26746 10.6666C9.23306 10.5238 9.21241 10.3776 9.21241 10.2297C9.20553 9.71021 9.40507 9.18728 9.81447 8.85356C10.0536 8.65918 10.4045 8.57489 10.6711 8.72627C10.9212 8.8677 11.0683 9.19724 11.1903 9.47069C11.2093 9.51319 11.2276 9.55435 11.2457 9.59323C11.3506 9.82029 11.4693 10.1179 11.4263 10.3725C11.3856 10.6037 11.2159 10.8023 11.0652 10.9786C11.05 10.9964 11.035 11.014 11.0203 11.0313C10.9119 11.1586 10.8965 11.267 10.9859 11.4046C11.5175 12.2905 12.2537 12.9321 13.217 13.3157C13.3477 13.369 13.4492 13.3518 13.5352 13.2469C13.5872 13.1831 13.6389 13.1001 13.6932 13.0131C13.813 12.821 13.9454 12.6087 14.1218 12.5365Z" fill="#231F1E"/>
</g>
</svg>
